<svg width="163" height="36" viewBox="0 0 163 36" fill="none" xmlns="http://www.w3.org/2000/svg">
<g clip-path="url(#clip0_15_79)">
<path d="M59.6792 35.0414H65.9772V25.0842L72.0329 19.2839L83.4176 34.993H90.6845L76.393 15.1753L91.169 1.15799H82.691L65.9772 16.8671V1.20633H59.6792V35.0414Z" fill="url(#paint0_linear_15_79)"/>
<path d="M108.339 35.9597C120.45 35.9597 126.99 27.2593 126.99 18.0755C126.99 8.89171 120.45 0.191284 108.339 0.191284C96.2273 0.191284 89.6871 8.89171 89.6871 18.0755C89.6871 27.2593 96.2273 35.9597 108.339 35.9597ZM108.339 30.1595C101.072 30.1595 95.985 24.8425 95.985 18.0755C95.985 11.3085 101.072 5.99157 108.339 5.99157C115.606 5.99157 120.692 11.3085 120.692 18.0755C120.692 24.8425 115.606 30.1595 108.339 30.1595Z" fill="url(#paint1_linear_15_79)"/>
<path d="M131.354 34.993H137.652V24.1174L148.359 23.1507L155.577 34.993H162.844L155.044 22.1357C159.986 20.5406 162.844 16.7704 162.844 12.2752V1.15799H131.354V34.993ZM137.652 18.3172V6.95828H156.546V12.0335C156.546 15.6587 153.639 16.8671 150.975 17.1088L137.652 18.3172Z" fill="url(#paint2_linear_15_79)"/>
<path d="M12.287 2.81964V5.60347H9.2955V2.81964H12.287ZM9.64068 8.5595H11.9419V22.9091H9.64068V8.5595Z" fill="white"/>
<path d="M21.0209 20.6419C20.0046 20.6419 19.0362 20.4027 18.1157 19.9244C17.2144 19.427 16.4761 18.719 15.9008 17.8007C15.3447 16.8823 15.0667 15.7821 15.0667 14.5002C15.0667 13.2183 15.3447 12.1182 15.9008 11.1998C16.4569 10.2623 17.1856 9.54483 18.0869 9.04737C18.9882 8.53079 19.9662 8.27249 21.0209 8.27249C21.3469 8.27249 21.6538 8.30119 21.9414 8.35859C22.2482 8.39686 22.5359 8.46382 22.8044 8.55948H28.6436V11.0276C27.819 11.0276 26.9944 10.8746 26.1698 10.5684C25.3644 10.2623 24.6741 9.94662 24.0988 9.62136L23.9837 9.50656C24.6549 9.87009 25.2014 10.3006 25.6233 10.798C26.0644 11.2955 26.3904 11.8599 26.6013 12.4913C26.8314 13.1035 26.9465 13.7732 26.9465 14.5002C26.9465 15.7821 26.6684 16.8823 26.1123 17.8007C25.5754 18.719 24.8562 19.427 23.9549 19.9244C23.0537 20.4027 22.0756 20.6419 21.0209 20.6419ZM25.2494 28.6489V28.0176C25.2494 27.0035 24.9809 26.2669 24.4439 25.8077C23.9262 25.3485 23.1399 25.119 22.0852 25.119H19.2088C18.5759 25.119 18.0198 25.0616 17.5404 24.9468C17.0802 24.8511 16.6967 24.6981 16.3898 24.4876C16.083 24.2771 15.8529 24.0188 15.6995 23.7127C15.5461 23.4066 15.4694 23.0622 15.4694 22.6795C15.4694 21.9525 15.6899 21.4072 16.1309 21.0437C16.572 20.661 17.1185 20.4219 17.7705 20.3262C18.4225 20.2305 19.0458 20.2305 19.6402 20.3262L21.0209 20.6419C19.9854 20.6993 19.18 20.8045 18.6047 20.9576C18.0486 21.1106 17.7705 21.4359 17.7705 21.9334C17.7705 22.2204 17.876 22.4595 18.0869 22.6508C18.3171 22.823 18.6526 22.9091 19.0937 22.9091H22.0852C23.0824 22.9091 23.9933 23.0431 24.8179 23.3109C25.6425 23.5979 26.3041 24.0667 26.8027 24.7172C27.3012 25.3868 27.5505 26.2956 27.5505 27.4436V28.6489H25.2494ZM21.0209 18.4894C21.6538 18.4894 22.2387 18.3364 22.7756 18.0303C23.3317 17.7241 23.7824 17.2745 24.1275 16.6814C24.4727 16.0883 24.6453 15.3612 24.6453 14.5002C24.6453 13.6393 24.4727 12.9122 24.1275 12.3191C23.8015 11.7068 23.3605 11.2477 22.8044 10.9415C22.2482 10.6163 21.6538 10.4536 21.0209 10.4536C20.3881 10.4536 19.7936 10.6163 19.2375 10.9415C18.6814 11.2477 18.2308 11.6973 17.8856 12.2904C17.5404 12.8835 17.3678 13.6201 17.3678 14.5002C17.3678 15.3612 17.5404 16.0883 17.8856 16.6814C18.2308 17.2745 18.6814 17.7241 19.2375 18.0303C19.7936 18.3364 20.3881 18.4894 21.0209 18.4894Z" fill="white"/>
<path d="M41.5903 22.9091V13.8976C41.5903 13.1514 41.4752 12.5391 41.2451 12.0608C41.015 11.5634 40.6698 11.1903 40.2095 10.9415C39.7493 10.6928 39.174 10.5685 38.4837 10.5685C37.6974 10.5685 36.9687 10.7693 36.2975 11.1711C35.6264 11.5729 35.0703 12.1278 34.6292 12.8357C34.2073 13.5245 33.9484 14.3281 33.8525 15.2464L33.8238 13.5819C33.9197 12.7783 34.1114 12.0512 34.3991 11.4007C34.7059 10.7502 35.0798 10.1954 35.5209 9.73617C35.9811 9.25785 36.4989 8.89433 37.0742 8.6456C37.6687 8.39687 38.2919 8.27251 38.9439 8.27251C39.711 8.27251 40.4013 8.38731 41.015 8.6169C41.6286 8.84649 42.1464 9.18132 42.5682 9.62138C42.9901 10.0614 43.3161 10.5972 43.5463 11.2285C43.7764 11.8408 43.8914 12.5391 43.8914 13.3236V22.9091H41.5903ZM31.6952 22.9091V2.81964H33.9964V22.9091H31.6952Z" fill="white"/>
<path d="M46.6357 8.55949H55.0925V10.7119H46.6357V8.55949ZM49.7135 4.82858H52.0147V22.9091H49.7135V4.82858Z" fill="white"/>
<path d="M0 34.993V1.25873H5.86608V28.5734H55.2585V34.993H0Z" fill="#4642F6"/>
</g>
<defs>
<linearGradient id="paint0_linear_15_79" x1="63.459" y1="-3.77622" x2="156.219" y2="46.12" gradientUnits="userSpaceOnUse">
<stop stop-color="#4443F6"/>
<stop offset="1" stop-color="#7D18EB"/>
</linearGradient>
<linearGradient id="paint1_linear_15_79" x1="63.459" y1="-3.77621" x2="156.219" y2="46.12" gradientUnits="userSpaceOnUse">
<stop stop-color="#4443F6"/>
<stop offset="1" stop-color="#7D18EB"/>
</linearGradient>
<linearGradient id="paint2_linear_15_79" x1="63.4589" y1="-3.77622" x2="156.219" y2="46.1201" gradientUnits="userSpaceOnUse">
<stop stop-color="#4443F6"/>
<stop offset="1" stop-color="#7D18EB"/>
</linearGradient>
<clipPath id="clip0_15_79">
<rect width="163" height="36" fill="white"/>
</clipPath>
</defs>
</svg>
