<svg width="700" height="335" viewBox="0 0 700 335" fill="none" xmlns="http://www.w3.org/2000/svg">
<rect x="1.5" y="1.5" width="697" height="332" rx="38.5" stroke="white" stroke-width="3"/>
<mask id="path-2-inside-1_1_233" fill="white">
<path d="M28.7465 23.6363L19 29.2726V40.5699V51.8671L22.4847 53.8811C24.403 54.9886 28.7782 57.5211 32.2135 59.5068C35.6489 61.4961 38.4789 63.1185 38.5 63.1185C38.5211 63.1185 41.3511 61.4961 44.7865 59.5068C48.2218 57.5211 52.6005 54.9886 54.5153 53.8811L58 51.8671V40.5699V29.2726L48.3732 23.7033C43.0793 20.6418 38.6901 18.1023 38.6197 18.067L38.493 18L28.7465 23.6363ZM46.036 24.3452C50.1366 26.719 54.1246 29.0222 54.8955 29.4666L56.2929 30.2778V40.5699V50.8584L54.7371 51.7613C53.8782 52.2551 50.9779 53.934 48.2852 55.4894C45.596 57.0484 42.2944 58.9531 40.9533 59.729C39.6123 60.505 38.493 61.1328 38.4683 61.1222C38.4226 61.1046 36.9196 60.2334 25.3604 53.5531L20.7071 50.8584V40.5699V30.2778L22.2664 29.3749C23.1218 28.8811 27.1168 26.5708 31.1435 24.2394C35.1702 21.9115 38.4894 20.0104 38.5211 20.0175C38.5528 20.0281 41.9319 21.975 46.036 24.3452Z"/>
</mask>
<path d="M19 29.2726H14V26.3882L16.497 24.9442L19 29.2726ZM19 51.8671L16.498 56.1961L14 54.7524V51.8671H19ZM22.4847 53.8811L19.9847 58.2113L19.9827 58.2101L22.4847 53.8811ZM32.2135 59.5068L34.7157 55.178L34.7191 55.1799L32.2135 59.5068ZM44.7865 59.5068L42.2809 55.1799L42.2843 55.178L44.7865 59.5068ZM54.5153 53.8811L52.012 49.5529L52.0134 49.5521L54.5153 53.8811ZM58 51.8671H63V54.7524L60.502 56.1961L58 51.8671ZM58 29.2726L60.5038 24.9446L63 26.3887V29.2726H58ZM48.3732 23.7033L50.8763 19.375L50.877 19.3754L48.3732 23.7033ZM38.6197 18.067L36.3799 22.5373L36.3308 22.5127L36.2821 22.487L38.6197 18.067ZM38.493 18L35.9899 13.6716L38.3849 12.2866L40.8305 13.5801L38.493 18ZM46.036 24.3452L48.5365 20.0154L48.5409 20.018L46.036 24.3452ZM54.8955 29.4666L57.3928 25.1349L57.3993 25.1386L57.4058 25.1424L54.8955 29.4666ZM56.2929 30.2778L58.8032 25.9537L61.2929 27.399V30.2778H56.2929ZM56.2929 50.8584H61.2929V53.7376L58.8027 55.1828L56.2929 50.8584ZM54.7371 51.7613L57.2469 56.0858L57.2381 56.0909L57.2293 56.0959L54.7371 51.7613ZM48.2852 55.4894L45.7775 51.1638L45.7842 51.1599L48.2852 55.4894ZM38.4683 61.1222L40.2664 56.4567L40.3546 56.4907L40.4413 56.528L38.4683 61.1222ZM25.3604 53.5531L22.8585 57.8821L22.8547 57.8799L25.3604 53.5531ZM20.7071 50.8584L18.2015 55.1852L15.7071 53.7408V50.8584H20.7071ZM20.7071 30.2778H15.7071V27.3953L18.2016 25.9509L20.7071 30.2778ZM22.2664 29.3749L19.7609 25.048L19.7665 25.0447L22.2664 29.3749ZM31.1435 24.2394L28.6382 19.9124L28.641 19.9107L31.1435 24.2394ZM38.5211 20.0175L39.6079 15.137L39.8601 15.1932L40.1052 15.2751L38.5211 20.0175ZM31.2495 27.9647L21.503 33.6009L16.497 24.9442L26.2434 19.3079L31.2495 27.9647ZM24 29.2726V40.5699H14V29.2726H24ZM24 40.5699V51.8671H14V40.5699H24ZM21.502 47.5381L24.9866 49.5521L19.9827 58.2101L16.498 56.1961L21.502 47.5381ZM24.9846 49.5509C26.9035 50.6587 31.2863 53.1956 34.7157 55.178L29.7113 63.8357C26.27 61.8465 21.9025 59.3185 19.9847 58.2113L24.9846 49.5509ZM34.7191 55.1799C36.4322 56.1719 37.9932 57.0717 39.1267 57.7225C39.6942 58.0483 40.1509 58.3096 40.4646 58.4882C40.6229 58.5783 40.7373 58.6429 40.8088 58.683C40.8472 58.7045 40.8588 58.7108 40.8539 58.7082C40.8514 58.7068 40.8445 58.7031 40.8344 58.6977C40.8257 58.693 40.8058 58.6824 40.7791 58.6687C40.7631 58.6604 40.6953 58.6255 40.6055 58.5837C40.5678 58.5662 40.4583 58.5155 40.3141 58.4593C40.2456 58.4327 40.0999 58.3774 39.9105 58.3217C39.8478 58.3032 39.2638 58.1185 38.5 58.1185V68.1185C37.7361 68.1185 37.1518 67.9338 37.0887 67.9153C36.899 67.8595 36.7529 67.804 36.6839 67.7772C36.5386 67.7206 36.4278 67.6693 36.3884 67.651C36.2952 67.6077 36.2227 67.5704 36.2006 67.559C36.1428 67.5292 36.094 67.5027 36.0734 67.4915C36.023 67.4641 35.9684 67.4336 35.9207 67.4069C35.82 67.3505 35.6829 67.2728 35.5192 67.1797C35.1891 66.9919 34.7196 66.7232 34.1475 66.3948C33.002 65.737 31.4303 64.831 29.708 63.8337L34.7191 55.1799ZM38.5 58.1185C37.7362 58.1185 37.1522 58.3032 37.0895 58.3217C36.9001 58.3774 36.7544 58.4327 36.6859 58.4593C36.5417 58.5155 36.4322 58.5662 36.3945 58.5837C36.3047 58.6255 36.2369 58.6604 36.2209 58.6687C36.1942 58.6824 36.1743 58.693 36.1656 58.6977C36.1555 58.7031 36.1486 58.7068 36.1461 58.7082C36.1412 58.7108 36.1528 58.7045 36.1912 58.683C36.2627 58.6429 36.3771 58.5783 36.5354 58.4882C36.8491 58.3096 37.3058 58.0483 37.8733 57.7225C39.0068 57.0717 40.5678 56.1719 42.2809 55.1799L47.292 63.8337C45.5697 64.831 43.998 65.737 42.8525 66.3948C42.2804 66.7232 41.8109 66.9919 41.4808 67.1797C41.3171 67.2728 41.18 67.3505 41.0793 67.4069C41.0316 67.4336 40.977 67.4641 40.9266 67.4915C40.906 67.5027 40.8572 67.5292 40.7994 67.559C40.7773 67.5704 40.7048 67.6077 40.6116 67.651C40.5722 67.6693 40.4614 67.7206 40.3161 67.7772C40.2471 67.804 40.101 67.8595 39.9113 67.9153C39.8482 67.9338 39.2639 68.1185 38.5 68.1185V58.1185ZM42.2843 55.178C45.719 53.1926 50.0972 50.6604 52.012 49.5529L57.0187 58.2093C55.1039 59.3168 50.7247 61.8495 47.2887 63.8357L42.2843 55.178ZM52.0134 49.5521L55.498 47.5381L60.502 56.1961L57.0173 58.2101L52.0134 49.5521ZM53 51.8671V40.5699H63V51.8671H53ZM53 40.5699V29.2726H63V40.5699H53ZM55.4962 33.6005L45.8694 28.0312L50.877 19.3754L60.5038 24.9446L55.4962 33.6005ZM45.8701 28.0316C40.4054 24.8713 36.2719 22.4832 36.3799 22.5373L40.8594 13.5967C41.1082 13.7214 45.7533 16.4123 50.8763 19.375L45.8701 28.0316ZM36.2821 22.487L36.1554 22.4199L40.8305 13.5801L40.9572 13.6471L36.2821 22.487ZM40.996 22.3284L31.2495 27.9647L26.2434 19.3079L35.9899 13.6716L40.996 22.3284ZM48.5409 20.018C52.64 22.3908 56.6253 24.6924 57.3928 25.1349L52.3982 33.7982C51.624 33.3519 47.6333 31.0472 43.5311 28.6725L48.5409 20.018ZM57.4058 25.1424L58.8032 25.9537L53.7825 34.6019L52.3852 33.7907L57.4058 25.1424ZM61.2929 30.2778V40.5699H51.2929V30.2778H61.2929ZM61.2929 40.5699V50.8584H51.2929V40.5699H61.2929ZM58.8027 55.1828L57.2469 56.0858L52.2273 47.4369L53.7831 46.5339L58.8027 55.1828ZM57.2293 56.0959C56.3759 56.5866 53.4894 58.2575 50.7862 59.819L45.7842 51.1599C48.4663 49.6105 51.3806 47.9236 52.2449 47.4267L57.2293 56.0959ZM50.7929 59.8151C48.1038 61.374 44.7867 63.2876 43.4574 64.0568L38.4492 55.4013C39.8021 54.6185 43.0882 52.7228 45.7775 51.1638L50.7929 59.8151ZM43.4574 64.0568C42.7737 64.4524 42.1382 64.8151 41.6626 65.0818C41.4285 65.213 41.2137 65.3319 41.0447 65.4227C40.9672 65.4644 40.8598 65.5214 40.751 65.5755C40.708 65.5968 40.5904 65.655 40.4444 65.7172C40.3866 65.7418 40.205 65.8187 39.9664 65.8934C39.8585 65.9271 39.5949 66.0067 39.2494 66.0612C39.2066 66.0679 37.926 66.3309 36.4953 65.7165L40.4413 56.528C39.6016 56.1673 38.8722 56.1279 38.5454 56.1229C38.1668 56.1171 37.8645 56.156 37.6912 56.1833C37.3475 56.2375 37.0863 56.3165 36.9812 56.3493C36.7484 56.4222 36.5746 56.4961 36.5267 56.5165C36.4005 56.5703 36.3107 56.6153 36.3034 56.619C36.2657 56.6377 36.2603 56.6413 36.3121 56.6135C36.4018 56.5653 36.5553 56.4808 36.7718 56.3594C37.1972 56.1208 37.7919 55.7816 38.4492 55.4013L43.4574 64.0568ZM36.6702 65.7877C36.4609 65.707 36.3018 65.6287 36.2745 65.6153C36.2163 65.587 36.17 65.563 36.1455 65.5502C36.0951 65.5239 36.0535 65.5011 36.0327 65.4897C35.9872 65.4647 35.9404 65.4383 35.9013 65.4162C35.8186 65.3693 35.6993 65.301 35.5344 65.2063C35.2012 65.0147 34.6433 64.6928 33.7308 64.1657C31.904 63.1104 28.637 61.2216 22.8585 57.8821L27.8622 49.224C33.6429 52.5648 36.9071 54.4519 38.7329 55.5066C39.6469 56.0346 40.1957 56.3513 40.5184 56.5368C40.6815 56.6305 40.7775 56.6854 40.8308 56.7156C40.8598 56.732 40.8612 56.7327 40.8484 56.7256C40.844 56.7232 40.8148 56.7072 40.7735 56.6856C40.7536 56.6752 40.711 56.6531 40.6556 56.6261C40.6312 56.6142 40.4743 56.5368 40.2664 56.4567L36.6702 65.7877ZM22.8547 57.8799L18.2015 55.1852L23.2128 46.5315L27.8661 49.2262L22.8547 57.8799ZM15.7071 50.8584V40.5699H25.7071V50.8584H15.7071ZM15.7071 40.5699V30.2778H25.7071V40.5699H15.7071ZM18.2016 25.9509L19.7609 25.048L24.772 33.7018L23.2127 34.6047L18.2016 25.9509ZM19.7665 25.0447C20.619 24.5525 24.6118 22.2436 28.6382 19.9124L33.6488 28.5665C29.6217 30.8981 25.6245 33.2096 24.7663 33.7051L19.7665 25.0447ZM28.641 19.9107C30.6582 18.7446 32.5012 17.6835 33.8465 16.9135C34.5178 16.5292 35.072 16.2135 35.4641 15.9923C35.6575 15.8831 35.8253 15.7891 35.9524 15.7193C36.0113 15.687 36.0885 15.6449 36.1644 15.6053C36.1945 15.5896 36.2752 15.5476 36.3742 15.5008C36.4127 15.4827 36.5371 15.4241 36.6994 15.3607C36.7706 15.3329 36.9562 15.2617 37.2007 15.1948C37.3209 15.1619 37.55 15.1036 37.8439 15.0635C38.045 15.036 38.7421 14.9442 39.6079 15.137L37.4343 24.898C38.2999 25.0907 38.9966 24.9989 39.1973 24.9715C39.4907 24.9314 39.7193 24.8732 39.8388 24.8405C40.082 24.774 40.266 24.7033 40.3351 24.6764C40.4932 24.6147 40.6119 24.5586 40.643 24.5439C40.7273 24.5041 40.7871 24.4727 40.7901 24.4711C40.812 24.4596 40.8107 24.46 40.7679 24.4835C40.6917 24.5254 40.5636 24.5969 40.3785 24.7014C40.0134 24.9074 39.4802 25.2111 38.8144 25.5922C37.4854 26.3529 35.6555 27.4064 33.646 28.5681L28.641 19.9107ZM40.1052 15.2751C40.3363 15.3523 40.5107 15.4302 40.5524 15.4487C40.6229 15.48 40.6784 15.5066 40.7084 15.5212C40.7693 15.5508 40.8168 15.5755 40.8367 15.5858C40.8808 15.6089 40.9162 15.6282 40.9299 15.6356C40.9627 15.6535 40.993 15.6705 41.0117 15.6809C41.0532 15.7042 41.104 15.7331 41.1581 15.7639C41.269 15.827 41.4254 15.9165 41.6193 16.0277C42.0086 16.251 42.5653 16.5712 43.2469 16.9638C44.611 17.7495 46.4836 18.8298 48.5365 20.0154L43.5355 28.6751C41.4843 27.4905 39.6153 26.4122 38.2558 25.6292C37.5757 25.2375 37.0252 24.9208 36.6437 24.702C36.4523 24.5922 36.3075 24.5093 36.2114 24.4547C36.1621 24.4266 36.1331 24.4102 36.1196 24.4027C36.1108 24.3977 36.1198 24.4028 36.1377 24.4126C36.144 24.416 36.1735 24.4322 36.2134 24.453C36.2312 24.4622 36.2769 24.486 36.3366 24.515C36.3659 24.5292 36.4209 24.5556 36.4908 24.5867C36.5321 24.6051 36.7061 24.6828 36.9371 24.7599L40.1052 15.2751Z" fill="white" mask="url(#path-2-inside-1_1_233)"/>
<path d="M650.746 274.636L641 280.273V291.57V302.867L644.485 304.881C646.403 305.989 650.778 308.521 654.214 310.507C657.649 312.496 660.479 314.119 660.5 314.119C660.521 314.119 663.351 312.496 666.786 310.507C670.222 308.521 674.601 305.989 676.515 304.881L680 302.867V291.57V280.273L670.373 274.703C665.079 271.642 660.69 269.102 660.62 269.067L660.493 269L650.746 274.636ZM668.036 275.345C672.137 277.719 676.125 280.022 676.895 280.467L678.293 281.278V291.57V301.858L676.737 302.761C675.878 303.255 672.978 304.934 670.285 306.489C667.596 308.048 664.294 309.953 662.953 310.729C661.612 311.505 660.493 312.133 660.468 312.122C660.423 312.105 658.92 311.233 647.36 304.553L642.707 301.858V291.57V281.278L644.266 280.375C645.122 279.881 649.117 277.571 653.144 275.239C657.17 272.912 660.489 271.01 660.521 271.017C660.553 271.028 663.932 272.975 668.036 275.345Z" fill="white"/>
<path d="M28.7465 274.636L19 280.273V291.57V302.867L22.4847 304.881C24.403 305.989 28.7782 308.521 32.2135 310.507C35.6489 312.496 38.4789 314.119 38.5 314.119C38.5211 314.119 41.3511 312.496 44.7865 310.507C48.2218 308.521 52.6005 305.989 54.5153 304.881L58 302.867V291.57V280.273L48.3732 274.703C43.0793 271.642 38.6901 269.102 38.6197 269.067L38.493 269L28.7465 274.636ZM46.036 275.345C50.1366 277.719 54.1246 280.022 54.8955 280.467L56.2929 281.278V291.57V301.858L54.7371 302.761C53.8782 303.255 50.9779 304.934 48.2852 306.489C45.596 308.048 42.2944 309.953 40.9533 310.729C39.6123 311.505 38.493 312.133 38.4683 312.122C38.4226 312.105 36.9196 311.233 25.3604 304.553L20.7071 301.858V291.57V281.278L22.2664 280.375C23.1218 279.881 27.1168 277.571 31.1435 275.239C35.1702 272.912 38.4894 271.01 38.5211 271.017C38.5528 271.028 41.9319 272.975 46.036 275.345Z" fill="white"/>
<path d="M28.7465 274.636L19 280.273V291.57V302.867L22.4847 304.881C24.403 305.989 28.7782 308.521 32.2135 310.507C35.6489 312.496 38.4789 314.119 38.5 314.119C38.5211 314.119 41.3511 312.496 44.7865 310.507C48.2218 308.521 52.6005 305.989 54.5153 304.881L58 302.867V291.57V280.273L48.3732 274.703C43.0793 271.642 38.6901 269.102 38.6197 269.067L38.493 269L28.7465 274.636ZM46.036 275.345C50.1366 277.719 54.1246 280.022 54.8955 280.467L56.2929 281.278V291.57V301.858L54.7371 302.761C53.8782 303.255 50.9779 304.934 48.2852 306.489C45.596 308.048 42.2944 309.953 40.9533 310.729C39.6123 311.505 38.493 312.133 38.4683 312.122C38.4226 312.105 36.9196 311.233 25.3604 304.553L20.7071 301.858V291.57V281.278L22.2664 280.375C23.1218 279.881 27.1168 277.571 31.1435 275.239C35.1702 272.912 38.4894 271.01 38.5211 271.017C38.5528 271.028 41.9319 272.975 46.036 275.345Z" fill="white"/>
<path d="M650.746 23.6363L641 29.2726V40.5699V51.8671L644.485 53.8811C646.403 54.9886 650.778 57.5211 654.214 59.5068C657.649 61.4961 660.479 63.1185 660.5 63.1185C660.521 63.1185 663.351 61.4961 666.786 59.5068C670.222 57.5211 674.601 54.9886 676.515 53.8811L680 51.8671V40.5699V29.2726L670.373 23.7033C665.079 20.6418 660.69 18.1023 660.62 18.067L660.493 18L650.746 23.6363ZM668.036 24.3452C672.137 26.719 676.125 29.0222 676.895 29.4666L678.293 30.2778V40.5699V50.8584L676.737 51.7613C675.878 52.2551 672.978 53.934 670.285 55.4894C667.596 57.0484 664.294 58.9531 662.953 59.729C661.612 60.505 660.493 61.1328 660.468 61.1222C660.423 61.1046 658.92 60.2334 647.36 53.5531L642.707 50.8584V40.5699V30.2778L644.266 29.3749C645.122 28.8811 649.117 26.5708 653.144 24.2394C657.17 21.9115 660.489 20.0104 660.521 20.0175C660.553 20.0281 663.932 21.975 668.036 24.3452Z" fill="white"/>
<circle cx="89" cy="41" r="8.5" stroke="white" stroke-width="3"/>
<circle cx="185" cy="41" r="8.5" stroke="white" stroke-width="3"/>
<circle cx="153" cy="41" r="8.5" stroke="white" stroke-width="3"/>
<circle cx="121" cy="41" r="8.5" stroke="white" stroke-width="3"/>
<circle cx="217" cy="41" r="8.5" stroke="white" stroke-width="3"/>
<circle cx="313" cy="41" r="8.5" stroke="white" stroke-width="3"/>
<circle cx="281" cy="41" r="8.5" stroke="white" stroke-width="3"/>
<circle cx="249" cy="41" r="8.5" stroke="white" stroke-width="3"/>
<circle cx="663" cy="166" r="5.5" stroke="white" stroke-width="3"/>
<circle cx="663" cy="133" r="5.5" stroke="white" stroke-width="3"/>
<circle cx="663" cy="183" r="5.5" stroke="white" stroke-width="3"/>
<circle cx="663" cy="116" r="5.5" stroke="white" stroke-width="3"/>
<circle cx="663" cy="200" r="5.5" stroke="white" stroke-width="3"/>
<circle cx="663" cy="150" r="5.5" stroke="white" stroke-width="3"/>
<circle cx="38.5" cy="120.5" r="13" stroke="white" stroke-width="3"/>
<circle cx="495.5" cy="166.5" r="23" stroke="white" stroke-width="3"/>
<circle cx="496" cy="166" r="31.5" stroke="white" stroke-width="3"/>
<circle cx="38.5" cy="159.5" r="13" stroke="white" stroke-width="3"/>
<circle cx="38.5" cy="198.5" r="13" stroke="white" stroke-width="3"/>
<circle cx="394" cy="41" r="8.5" stroke="white" stroke-width="3"/>
<circle cx="490" cy="41" r="8.5" stroke="white" stroke-width="3"/>
<circle cx="458" cy="41" r="8.5" stroke="white" stroke-width="3"/>
<circle cx="426" cy="41" r="8.5" stroke="white" stroke-width="3"/>
<circle cx="522" cy="41" r="8.5" stroke="white" stroke-width="3"/>
<circle cx="618" cy="41" r="8.5" stroke="white" stroke-width="3"/>
<circle cx="586" cy="41" r="8.5" stroke="white" stroke-width="3"/>
<circle cx="554" cy="41" r="8.5" stroke="white" stroke-width="3"/>
<line x1="71.5" x2="71.5" y2="80" stroke="white" stroke-width="3"/>
<line x1="71.0071" y1="93.5" x2="1" y2="93.5" stroke="white" stroke-width="3"/>
<line x1="698.007" y1="93.5" x2="628" y2="93.5" stroke="white" stroke-width="3"/>
<line x1="698.007" y1="226.5" x2="628" y2="226.5" stroke="white" stroke-width="3"/>
<line x1="71.5" y1="228.004" x2="71.5" y2="92" stroke="white" stroke-width="3"/>
<line x1="626.5" y1="228.004" x2="626.5" y2="92" stroke="white" stroke-width="3"/>
<line x1="73" y1="229.5" y2="229.5" stroke="white" stroke-width="3"/>
<line x1="633.5" y1="2" x2="633.5" y2="82" stroke="white" stroke-width="3"/>
<line x1="70.0053" y1="78.5" x2="632.005" y2="80.4754" stroke="white" stroke-width="3"/>
<circle cx="89" cy="41" r="8.5" stroke="white" stroke-width="3"/>
<circle cx="185" cy="41" r="8.5" stroke="white" stroke-width="3"/>
<circle cx="153" cy="41" r="8.5" stroke="white" stroke-width="3"/>
<circle cx="121" cy="41" r="8.5" stroke="white" stroke-width="3"/>
<circle cx="217" cy="41" r="8.5" stroke="white" stroke-width="3"/>
<circle cx="313" cy="41" r="8.5" stroke="white" stroke-width="3"/>
<circle cx="281" cy="41" r="8.5" stroke="white" stroke-width="3"/>
<circle cx="249" cy="41" r="8.5" stroke="white" stroke-width="3"/>
<circle cx="394" cy="41" r="8.5" stroke="white" stroke-width="3"/>
<circle cx="490" cy="41" r="8.5" stroke="white" stroke-width="3"/>
<circle cx="458" cy="41" r="8.5" stroke="white" stroke-width="3"/>
<circle cx="426" cy="41" r="8.5" stroke="white" stroke-width="3"/>
<circle cx="522" cy="41" r="8.5" stroke="white" stroke-width="3"/>
<circle cx="618" cy="41" r="8.5" stroke="white" stroke-width="3"/>
<circle cx="586" cy="41" r="8.5" stroke="white" stroke-width="3"/>
<circle cx="554" cy="41" r="8.5" stroke="white" stroke-width="3"/>
<line x1="633.5" y1="2" x2="633.5" y2="82" stroke="white" stroke-width="3"/>
<line x1="70.0053" y1="78.5" x2="632.005" y2="80.4754" stroke="white" stroke-width="3"/>
<circle cx="613" cy="294" r="8.5" transform="rotate(-180 613 294)" stroke="white" stroke-width="3"/>
<circle cx="517" cy="294" r="8.5" transform="rotate(-180 517 294)" stroke="white" stroke-width="3"/>
<circle cx="549" cy="294" r="8.5" transform="rotate(-180 549 294)" stroke="white" stroke-width="3"/>
<circle cx="581" cy="294" r="8.5" transform="rotate(-180 581 294)" stroke="white" stroke-width="3"/>
<circle cx="485" cy="294" r="8.5" transform="rotate(-180 485 294)" stroke="white" stroke-width="3"/>
<circle cx="389" cy="294" r="8.5" transform="rotate(-180 389 294)" stroke="white" stroke-width="3"/>
<circle cx="421" cy="294" r="8.5" transform="rotate(-180 421 294)" stroke="white" stroke-width="3"/>
<circle cx="453" cy="294" r="8.5" transform="rotate(-180 453 294)" stroke="white" stroke-width="3"/>
<circle cx="308" cy="294" r="8.5" transform="rotate(-180 308 294)" stroke="white" stroke-width="3"/>
<circle cx="212" cy="294" r="8.5" transform="rotate(-180 212 294)" stroke="white" stroke-width="3"/>
<circle cx="244" cy="294" r="8.5" transform="rotate(-180 244 294)" stroke="white" stroke-width="3"/>
<circle cx="276" cy="294" r="8.5" transform="rotate(-180 276 294)" stroke="white" stroke-width="3"/>
<circle cx="180" cy="294" r="8.5" transform="rotate(-180 180 294)" stroke="white" stroke-width="3"/>
<circle cx="84.0001" cy="294" r="8.5" transform="rotate(-180 84.0001 294)" stroke="white" stroke-width="3"/>
<circle cx="116" cy="294" r="8.5" transform="rotate(-180 116 294)" stroke="white" stroke-width="3"/>
<circle cx="148" cy="294" r="8.5" transform="rotate(-180 148 294)" stroke="white" stroke-width="3"/>
<line x1="630.5" y1="335" x2="630.5" y2="255" stroke="white" stroke-width="3"/>
<line x1="68.5001" y1="333" x2="68.5001" y2="253" stroke="white" stroke-width="3"/>
<line x1="631.995" y1="256.5" x2="69.9947" y2="254.525" stroke="white" stroke-width="3"/>
<circle cx="613" cy="294" r="8.5" transform="rotate(-180 613 294)" stroke="white" stroke-width="3"/>
<circle cx="517" cy="294" r="8.5" transform="rotate(-180 517 294)" stroke="white" stroke-width="3"/>
<circle cx="549" cy="294" r="8.5" transform="rotate(-180 549 294)" stroke="white" stroke-width="3"/>
<circle cx="581" cy="294" r="8.5" transform="rotate(-180 581 294)" stroke="white" stroke-width="3"/>
<circle cx="485" cy="294" r="8.5" transform="rotate(-180 485 294)" stroke="white" stroke-width="3"/>
<circle cx="389" cy="294" r="8.5" transform="rotate(-180 389 294)" stroke="white" stroke-width="3"/>
<circle cx="421" cy="294" r="8.5" transform="rotate(-180 421 294)" stroke="white" stroke-width="3"/>
<circle cx="453" cy="294" r="8.5" transform="rotate(-180 453 294)" stroke="white" stroke-width="3"/>
<circle cx="308" cy="294" r="8.5" transform="rotate(-180 308 294)" stroke="white" stroke-width="3"/>
<circle cx="212" cy="294" r="8.5" transform="rotate(-180 212 294)" stroke="white" stroke-width="3"/>
<circle cx="244" cy="294" r="8.5" transform="rotate(-180 244 294)" stroke="white" stroke-width="3"/>
<circle cx="276" cy="294" r="8.5" transform="rotate(-180 276 294)" stroke="white" stroke-width="3"/>
<circle cx="180" cy="294" r="8.5" transform="rotate(-180 180 294)" stroke="white" stroke-width="3"/>
<circle cx="84.0001" cy="294" r="8.5" transform="rotate(-180 84.0001 294)" stroke="white" stroke-width="3"/>
<circle cx="116" cy="294" r="8.5" transform="rotate(-180 116 294)" stroke="white" stroke-width="3"/>
<circle cx="148" cy="294" r="8.5" transform="rotate(-180 148 294)" stroke="white" stroke-width="3"/>
<line x1="68.5001" y1="333" x2="68.5001" y2="253" stroke="white" stroke-width="3"/>
<line x1="631.995" y1="256.5" x2="69.9947" y2="254.525" stroke="white" stroke-width="3"/>
<rect x="117.5" y="107.5" width="137" height="76" stroke="white" stroke-width="3"/>
<g clip-path="url(#clip0_1_233)">
<path d="M170.176 231.361H174.31V224.723L178.285 220.856L185.759 231.329H190.529L181.148 218.117L190.847 208.772H185.282L174.31 219.245V208.804H170.176V231.361Z" fill="white"/>
<path d="M202.118 231.973C210.069 231.973 214.362 226.173 214.362 220.05C214.362 213.928 210.069 208.128 202.118 208.128C194.168 208.128 189.874 213.928 189.874 220.05C189.874 226.173 194.168 231.973 202.118 231.973ZM202.118 228.106C197.348 228.106 194.009 224.562 194.009 220.05C194.009 215.539 197.348 211.994 202.118 211.994C206.888 211.994 210.228 215.539 210.228 220.05C210.228 224.562 206.888 228.106 202.118 228.106Z" fill="white"/>
<path d="M217.226 231.329H221.361V224.078L228.389 223.434L233.127 231.329H237.898L232.778 222.757C236.021 221.694 237.898 219.18 237.898 216.183V208.772H217.226V231.329ZM221.361 220.211V212.639H233.763V216.022C233.763 218.439 231.855 219.245 230.106 219.406L221.361 220.211Z" fill="white"/>
<path d="M139.066 209.88V211.736H137.102V209.88H139.066ZM137.329 213.706H138.839V223.273H137.329V213.706Z" fill="white"/>
<path d="M144.799 221.761C144.132 221.761 143.496 221.602 142.892 221.283C142.3 220.951 141.816 220.479 141.438 219.867C141.073 219.255 140.89 218.521 140.89 217.667C140.89 216.812 141.073 216.079 141.438 215.467C141.803 214.842 142.281 214.363 142.873 214.032C143.465 213.687 144.107 213.515 144.799 213.515C145.013 213.515 145.214 213.534 145.403 213.572C145.605 213.598 145.793 213.643 145.97 213.706H149.803V215.352C149.262 215.352 148.72 215.25 148.179 215.046C147.65 214.842 147.197 214.631 146.819 214.414L146.744 214.338C147.184 214.58 147.543 214.867 147.82 215.199C148.11 215.53 148.324 215.907 148.462 216.328C148.613 216.736 148.689 217.182 148.689 217.667C148.689 218.521 148.506 219.255 148.141 219.867C147.789 220.479 147.317 220.951 146.725 221.283C146.133 221.602 145.491 221.761 144.799 221.761ZM147.575 227.099V226.678C147.575 226.002 147.398 225.511 147.046 225.205C146.706 224.899 146.19 224.746 145.498 224.746H143.609C143.194 224.746 142.829 224.708 142.514 224.631C142.212 224.567 141.96 224.465 141.759 224.325C141.558 224.185 141.406 224.013 141.306 223.808C141.205 223.604 141.155 223.375 141.155 223.12C141.155 222.635 141.299 222.271 141.589 222.029C141.879 221.774 142.237 221.615 142.665 221.551C143.093 221.487 143.502 221.487 143.893 221.551L144.799 221.761C144.119 221.8 143.591 221.87 143.213 221.972C142.848 222.074 142.665 222.291 142.665 222.622C142.665 222.814 142.735 222.973 142.873 223.101C143.024 223.215 143.244 223.273 143.534 223.273H145.498C146.152 223.273 146.75 223.362 147.291 223.541C147.833 223.732 148.267 224.044 148.594 224.478C148.922 224.925 149.085 225.53 149.085 226.296V227.099H147.575ZM144.799 220.326C145.214 220.326 145.598 220.224 145.951 220.02C146.316 219.816 146.612 219.516 146.838 219.121C147.065 218.726 147.178 218.241 147.178 217.667C147.178 217.093 147.065 216.608 146.838 216.213C146.624 215.805 146.335 215.498 145.97 215.294C145.605 215.078 145.214 214.969 144.799 214.969C144.384 214.969 143.993 215.078 143.628 215.294C143.263 215.498 142.967 215.798 142.741 216.194C142.514 216.589 142.401 217.08 142.401 217.667C142.401 218.241 142.514 218.726 142.741 219.121C142.967 219.516 143.263 219.816 143.628 220.02C143.993 220.224 144.384 220.326 144.799 220.326Z" fill="white"/>
<path d="M158.302 223.273V217.265C158.302 216.768 158.226 216.359 158.075 216.041C157.924 215.709 157.697 215.46 157.395 215.294C157.093 215.129 156.715 215.046 156.262 215.046C155.746 215.046 155.268 215.18 154.827 215.447C154.387 215.715 154.022 216.085 153.732 216.557C153.455 217.016 153.285 217.552 153.222 218.164L153.203 217.055C153.266 216.519 153.392 216.034 153.581 215.6C153.782 215.167 154.028 214.797 154.317 214.491C154.62 214.172 154.959 213.93 155.337 213.764C155.727 213.598 156.136 213.515 156.564 213.515C157.068 213.515 157.521 213.592 157.924 213.745C158.327 213.898 158.667 214.121 158.944 214.414C159.22 214.708 159.435 215.065 159.586 215.486C159.737 215.894 159.812 216.359 159.812 216.882V223.273H158.302ZM151.806 223.273V209.88H153.317V223.273H151.806Z" fill="white"/>
<path d="M161.614 213.706H167.165V215.141H161.614V213.706ZM163.634 211.219H165.145V223.273H163.634V211.219Z" fill="white"/>
<path d="M131 231.329V208.839H134.851V227.049H167.274V231.329H131Z" fill="white"/>
</g>
<defs>
<clipPath id="clip0_1_233">
<rect width="107" height="24" fill="white" transform="translate(131 208)"/>
</clipPath>
</defs>
</svg>
